<?xml version="1.0" encoding="utf-8"?>
<!-- Generator: Adobe Illustrator 28.1.0, SVG Export Plug-In . SVG Version: 6.00 Build 0)  -->
<svg version="1.1" id="Layer_1" xmlns="http://www.w3.org/2000/svg" xmlns:xlink="http://www.w3.org/1999/xlink" x="0px" y="0px"
	 width="1685.1px" height="769.9px" viewBox="0 0 1685.1 769.9" style="enable-background:new 0 0 1685.1 769.9;"
	 xml:space="preserve">
<style type="text/css">
	.st0{fill:#F9DE15;}
</style>
<path class="st0" d="M313.9,332c0,90.2-59.8,122.1-144.9,122.1h-49.2v115H23V214.4h152.6C258.7,214.4,313.9,246.3,313.9,332
	L313.9,332z M216.1,333.5c0-23.3-11.7-39-43.1-39h-53.2V374h51.7C203.4,374,216.1,360.4,216.1,333.5L216.1,333.5z"/>
<path class="st0" d="M416.8,482.3V213.2h-99.3V568H574v-85.7H416.8L416.8,482.3z"/>
<path class="st0" d="M1232.4,212.6l-122.5,354.7l-99.3-0.1L888.7,212.3l110.5,0.1l25.8,95.3c12.1,44.1,29.3,116.1,35.8,150.1
	c6.6-34,23.9-105.4,36.1-150l25.9-95.3L1232.4,212.6L1232.4,212.6z"/>
<path class="st0" d="M1328.8,567h-100.3V212.2h100.3V567z"/>
<path class="st0" d="M1662.1,383.2c0,118.1-68.4,183.5-164.7,183.5s-163.7-64.4-163.7-182.5s68.4-183.5,164.7-183.5
	S1662.1,265.1,1662.1,383.2z M1560.2,384.2c0-63.9-23.3-97.8-62.8-97.8s-61.8,32.9-61.8,96.8s23.3,97.8,62.8,97.8
	S1560.2,448.1,1560.2,384.2L1560.2,384.2z"/>
<path class="st0" d="M881.9,212.4l-96.5,0.7l81.2,225c0.2,0.5,0.3,1.1,0.3,1.7l-3.4,128.5h99.3l-2.3-129.4"/>
<polygon class="st0" points="483,496.6 596.6,212.5 699.9,212.1 863.2,440 858.4,569.2 785.9,568.8 781.6,439.2 659.9,293 
	636.8,343.1 754.4,568.8 667.1,568.8 594.4,429.7 556.8,527.7 "/>
</svg>
